<svg id="Layer_1" data-name="Layer 1" xmlns="http://www.w3.org/2000/svg" viewBox="0 0 467.41 315"><defs><style>.cls-1{fill:#e65339;}</style></defs><path class="cls-1" d="M447.88,42.46a2.81,2.81,0,0,0,1.19-1.66,11,11,0,0,0,.37-3.09,10.15,10.15,0,0,0-.41-3.13c-.45-1.49-1.95-2.24-4.48-2.24H428.38a7.29,7.29,0,0,0-3.26.61,2.81,2.81,0,0,0-1.29,1.63,9.46,9.46,0,0,0-.41,3.06,11.72,11.72,0,0,0,.34,3.12c.5,1.54,2,2.31,4.55,2.31h16.17a7.72,7.72,0,0,0,3.4-.61M397.13,32.34a5,5,0,0,1,2.17-3.84,6.87,6.87,0,0,1,4.38-1.8,5.36,5.36,0,0,1,3.4.95,3.07,3.07,0,0,1,1.19,2.51c0,1.45-.86,2.18-2.58,2.18Zm20.58-9.72Q413.3,16,403.85,16A19.56,19.56,0,0,0,390,21.1q-5.53,5.12-5.54,13.69a19.56,19.56,0,0,0,4.28,12.29,15.28,15.28,0,0,0,6.08,4.59,21.94,21.94,0,0,0,8.94,1.73q14.46,0,14.47-6a7.47,7.47,0,0,0-.89-3.12q-1.56-3.06-3.73-3.06a6.83,6.83,0,0,0-2.72.75l-.75.27A18.77,18.77,0,0,1,404,43a8.88,8.88,0,0,1-4.48-1.29c-1.5-.86-2.25-1.92-2.25-3.19h16.1a6.48,6.48,0,0,0,4.59-2q2.07-2,2.07-6.19a13.83,13.83,0,0,0-2.31-7.71M380,8.32A18.88,18.88,0,0,0,380.08,6,19.18,19.18,0,0,0,380,3.63a5.3,5.3,0,0,0-.64-1.8Q378.45,0,374.17,0t-5.3,1.83a5.63,5.63,0,0,0-.58,1.74,19.32,19.32,0,0,0-.1,2.34,19.32,19.32,0,0,0,.1,2.34,5.71,5.71,0,0,0,.61,1.8,2.85,2.85,0,0,0,1.8,1.43,14.55,14.55,0,0,0,6.86,0,2.86,2.86,0,0,0,1.8-1.39A5.33,5.33,0,0,0,380,8.32M368.19,46.54a19.42,19.42,0,0,0,.1,2.38,6.4,6.4,0,0,0,.58,1.76c.63,1.22,2.37,1.84,5.23,1.84s4.64-.59,5.23-1.77A5.3,5.3,0,0,0,380,49a18.88,18.88,0,0,0,.11-2.34V22.83c0-.86,0-1.52-.07-2a3.77,3.77,0,0,0-1.22-2.92c-.91-.77-2.45-1.16-4.62-1.16q-4.35,0-5.3,1.77a6.3,6.3,0,0,0-.58,1.8,19.32,19.32,0,0,0-.1,2.34Zm-7.37-17.9a6.3,6.3,0,0,0,1.8-.58q1.83-1,1.83-5.23c0-2.9-.59-4.65-1.77-5.23a5.28,5.28,0,0,0-1.8-.65,19,19,0,0,0-2.31-.1c-1,0-2.52.09-4.51.27V10.46A12.92,12.92,0,0,0,353.72,7q-.89-2.52-5.51-2.52-4.35,0-5.23,1.7a4.39,4.39,0,0,0-.64,1.63,18.54,18.54,0,0,0-.1,2.31v7L340,16.85a4.14,4.14,0,0,0-2.71.88,3.67,3.67,0,0,0-1,1.8,17.49,17.49,0,0,0-.34,4,6.07,6.07,0,0,0,1,3.94,3.1,3.1,0,0,0,2.48,1.16,18.77,18.77,0,0,0,2.79-.2V38.52q0,7.6,3.66,10.8t10.74,3.2a18.16,18.16,0,0,0,2.27-.11,6.24,6.24,0,0,0,1.8-.57q1.91-1,1.91-5.23,0-3.68-1.57-4.56a4.84,4.84,0,0,0-1.8-.64,21.49,21.49,0,0,0-2.44-.1,2.5,2.5,0,0,1-2.18-.82,4.71,4.71,0,0,1-.57-2.65V28.47l4.41.27a21.88,21.88,0,0,0,2.35-.1M309.73,30.5a5.53,5.53,0,0,1,4.35-1.9,5.34,5.34,0,0,1,4.28,1.9A6.3,6.3,0,0,1,320,34.61a5.9,5.9,0,0,1-1.66,4,5.42,5.42,0,0,1-4.18,1.83,5.77,5.77,0,0,1-4.28-1.8,5.63,5.63,0,0,1-1.77-4,6.18,6.18,0,0,1,1.67-4.15m9.47-11.38a9.34,9.34,0,0,0-2.64-1.52,10.52,10.52,0,0,0-4.22-.82q-6,0-11.1,5.33a17.87,17.87,0,0,0,0,24.9q5,5.37,10.91,5.37t8.39-3.6A3.63,3.63,0,0,0,322,51.46c.83.61,2.49.92,5,.92s4-.59,4.65-1.77a6.3,6.3,0,0,0,.58-1.8,21.67,21.67,0,0,0,.1-2.34V22.69a21.67,21.67,0,0,0-.1-2.34,5.88,5.88,0,0,0-.61-1.8,2.85,2.85,0,0,0-1.8-1.43,14.22,14.22,0,0,0-3.95-.41q-4.95,0-5.36,3.81a10,10,0,0,0-1.23-1.4M277,50.89a16.38,16.38,0,0,0,1.83-1.5A7.06,7.06,0,0,0,280,48a5.44,5.44,0,0,0,.67,2.79c.64,1.08,2.34,1.63,5.1,1.63s4.55-.59,5.23-1.77a4.9,4.9,0,0,0,.65-1.73,20.93,20.93,0,0,0,.1-2.28v-24a21.67,21.67,0,0,0-.1-2.34,6.3,6.3,0,0,0-.58-1.8c-.64-1.22-2.38-1.84-5.23-1.84s-4.64.59-5.23,1.77a5.35,5.35,0,0,0-.65,1.8,19.4,19.4,0,0,0-.1,2.35v12a5.76,5.76,0,0,1-1.66,4.28,6,6,0,0,1-4.35,1.63,5.85,5.85,0,0,1-4.28-1.56,5.78,5.78,0,0,1-1.6-4.35V22.69a10.69,10.69,0,0,0-.41-3.46c-.54-1.72-2.4-2.59-5.57-2.59-2.9,0-4.66.62-5.3,1.84a6.28,6.28,0,0,0-.57,1.77,18.65,18.65,0,0,0-.11,2.37V34.51a18.63,18.63,0,0,0,4.52,12.67,14.43,14.43,0,0,0,11.38,5.2,9.13,9.13,0,0,0,5-1.49m-30-34.35a18.17,18.17,0,0,0-2.68-.17,8,8,0,0,0-3.71,1.16,12.81,12.81,0,0,0-2.75,1.83,10.83,10.83,0,0,0-1,1.16,3.88,3.88,0,0,0-.75-2.24q-1-1.58-5.09-1.57-4.35,0-5.3,1.84a5.5,5.5,0,0,0-.58,1.73,19.32,19.32,0,0,0-.1,2.34V48.44a4,4,0,0,0,1.22,2.92c1,.77,2.51,1.16,4.69,1.16q4.28,0,5.3-1.77a5.53,5.53,0,0,0,.64-1.8,19.32,19.32,0,0,0,.1-2.34V32.34a3.92,3.92,0,0,1,1.6-3.13A5.35,5.35,0,0,1,242,27.92a6.74,6.74,0,0,1,3,.55,5.31,5.31,0,0,0,2.34.54A4.05,4.05,0,0,0,251,26.43a10.76,10.76,0,0,0,1.29-4.76,4.83,4.83,0,0,0-.85-3.16,4.64,4.64,0,0,0-2.14-1.39,17.74,17.74,0,0,0-2.38-.58m-29.31,12.1a6.3,6.3,0,0,0,1.8-.58q1.83-1,1.83-5.23c0-2.9-.59-4.65-1.77-5.23a5.28,5.28,0,0,0-1.8-.65,19,19,0,0,0-2.31-.1c-1,0-2.52.09-4.51.27V10.46A12.92,12.92,0,0,0,210.51,7q-.88-2.52-5.51-2.52-4.35,0-5.23,1.7a4.39,4.39,0,0,0-.64,1.63,18.54,18.54,0,0,0-.1,2.31v7l-2.25-.27a4.14,4.14,0,0,0-2.71.88,3.67,3.67,0,0,0-1,1.8,17.62,17.62,0,0,0-.33,4,6.07,6.07,0,0,0,1,3.94,3.1,3.1,0,0,0,2.48,1.16,18.77,18.77,0,0,0,2.79-.2V38.52q0,7.6,3.66,10.8t10.74,3.2a18.16,18.16,0,0,0,2.27-.11,6.15,6.15,0,0,0,1.8-.57q1.91-1,1.91-5.23,0-3.68-1.57-4.56a4.84,4.84,0,0,0-1.8-.64,21.49,21.49,0,0,0-2.44-.1,2.5,2.5,0,0,1-2.18-.82,4.71,4.71,0,0,1-.57-2.65V28.47l4.41.27a21.88,21.88,0,0,0,2.35-.1m-42.4,24.49A24.9,24.9,0,0,0,186.12,51a8.58,8.58,0,0,0,3.7-3.7,12.65,12.65,0,0,0,1.32-6,11.84,11.84,0,0,0-1.32-5.88,7.71,7.71,0,0,0-3.3-3.3,25.34,25.34,0,0,0-8.69-2.58c-3.08-.4-4.62-1.29-4.62-2.65,0-1,1.33-1.49,4-1.49a11.31,11.31,0,0,1,4.79,1,9.19,9.19,0,0,0,3,1c1,0,2.06-.8,3.06-2.38a8.07,8.07,0,0,0,1.49-4c0-1.09-.79-2-2.38-2.72A23.9,23.9,0,0,0,177.28,16q-14.73,0-14.74,10.74A13.88,13.88,0,0,0,163.83,33a9,9,0,0,0,3.26,3.84,22.32,22.32,0,0,0,8.5,3.2c3,.4,4.55,1,4.55,1.9,0,1.08-1.38,1.63-4.15,1.63a10.46,10.46,0,0,1-5.16-1.67,9.89,9.89,0,0,0-4.52-1.66,2.64,2.64,0,0,0-2.41,1.16c-1.72,2.4-2.58,4.18-2.58,5.36a2.82,2.82,0,0,0,1.29,2.58,23.29,23.29,0,0,0,12.6,3.81M136,18.28a11.37,11.37,0,0,0-1.83,1.42,6.73,6.73,0,0,0-1.23,1.36,5.31,5.31,0,0,0-.68-2.78q-.94-1.58-5.09-1.57t-5.23,1.7a4.78,4.78,0,0,0-.65,1.73,18.64,18.64,0,0,0-.1,2.28v24a19.32,19.32,0,0,0,.1,2.34,6.3,6.3,0,0,0,.58,1.8c.63,1.23,2.38,1.84,5.23,1.84s4.64-.61,5.23-1.84a4.9,4.9,0,0,0,.65-1.73,21.67,21.67,0,0,0,.1-2.34v-12a5.73,5.73,0,0,1,1.66-4.28,6,6,0,0,1,4.35-1.63A5.46,5.46,0,0,1,145,34.51v12a10.78,10.78,0,0,0,.41,3.46q.73,2.52,5.57,2.52,4.33,0,5.3-1.84a5.72,5.72,0,0,0,.57-1.73,19.32,19.32,0,0,0,.1-2.34v-12a18.66,18.66,0,0,0-4.51-12.67,14.41,14.41,0,0,0-11.32-5.2A8.84,8.84,0,0,0,136,18.28M93.86,32.34A5,5,0,0,1,96,28.5a6.87,6.87,0,0,1,4.38-1.8,5.34,5.34,0,0,1,3.4.95A3.07,3.07,0,0,1,105,30.16c0,1.45-.86,2.18-2.58,2.18Zm20.58-9.72Q110,16,100.58,16A19.56,19.56,0,0,0,86.76,21.1q-5.54,5.12-5.54,13.69A19.56,19.56,0,0,0,85.5,47.08a15.28,15.28,0,0,0,6.08,4.59,21.94,21.94,0,0,0,8.94,1.73q14.46,0,14.47-6a7.47,7.47,0,0,0-.89-3.12q-1.56-3.06-3.73-3.06a6.83,6.83,0,0,0-2.72.75l-.75.27a18.77,18.77,0,0,1-6.18.81,8.91,8.91,0,0,1-4.48-1.29c-1.5-.86-2.25-1.92-2.25-3.19H110.1a6.48,6.48,0,0,0,4.58-2q2.07-2,2.07-6.19a13.83,13.83,0,0,0-2.31-7.71M35,17.94c-.77-.82-2.43-1.23-5-1.23s-4.15.61-4.83,1.84a4.86,4.86,0,0,0-.64,1.73,19.32,19.32,0,0,0-.1,2.34V46.54a19.42,19.42,0,0,0,.1,2.38,6.4,6.4,0,0,0,.58,1.76c.63,1.22,2.37,1.84,5.23,1.84s4.62-.59,5.3-1.77a5.53,5.53,0,0,0,.64-1.8,19.32,19.32,0,0,0,.1-2.34v-12q0-5.91,4.08-5.91t4.21,5.91V46.47a21.67,21.67,0,0,0,.1,2.34,6.3,6.3,0,0,0,.58,1.8c.63,1.27,2.38,1.91,5.23,1.91s4.67-.62,5.3-1.84a5.66,5.66,0,0,0,.65-1.76,21.71,21.71,0,0,0,.1-2.38V34.65a9.35,9.35,0,0,1,.85-4.42,3.32,3.32,0,0,1,3.22-1.56q4.21,0,4.22,5.91V46.47a19.32,19.32,0,0,0,.1,2.34,6.3,6.3,0,0,0,.58,1.8q.95,1.91,5.23,1.91c2.9,0,4.64-.62,5.23-1.84a5.3,5.3,0,0,0,.64-1.8,18.88,18.88,0,0,0,.11-2.34V34.65q0-9.64-3.67-13.83A11.66,11.66,0,0,0,64,16.64,9.46,9.46,0,0,0,59.28,18a14.59,14.59,0,0,0-3.36,2.45,21.51,21.51,0,0,0-1.81,2.14,11.12,11.12,0,0,0-10.32-5.92q-4.49,0-7.68,4.83A4.94,4.94,0,0,0,35,17.94"/><path class="cls-1" d="M141.74,202.87a13.68,13.68,0,0,0,3.86-9.38,14.59,14.59,0,0,0-3.7-9.53,12.41,12.41,0,0,0-10-4.42,12.72,12.72,0,0,0-10.09,4.34,14.19,14.19,0,0,0-3.78,9.53,14.29,14.29,0,0,0,14,13.72,12.54,12.54,0,0,0,9.69-4.26M379.34,219q0,3.78-4.88,10.24-5.37,6.63-9.46,6.62-3.47,0-9.62-4.57l-1.57-1.1q-3.63-3-11.19-10.48T331.11,209v12.13a45.14,45.14,0,0,1-.24,5.44,12.47,12.47,0,0,1-1.49,4.18q-2.06,4.09-12.14,4.1-9.93,0-12.14-4.26a14.9,14.9,0,0,1-1.34-4.18,47.66,47.66,0,0,1-.23-5.43V126.58a47.78,47.78,0,0,1,.23-5.43A14.9,14.9,0,0,1,305.1,117q2.2-4.26,12.3-4.26,7.56,0,10.72,2.68c1.78,1.48,2.73,3.79,2.83,6.94a42.51,42.51,0,0,1,.16,4.41v50q2.83-2.37,8.59-8c3.84-3.79,6.7-6.46,8.59-8l1.89-1.26q5.52-4.26,9.46-4.26c2.62,0,5.65,2.13,9.06,6.39s5.12,7.59,5.12,10-1.94,5.26-5.83,8.52l-15.6,13.24,21,17.33a24.74,24.74,0,0,1,5,5,6.54,6.54,0,0,1,1,3.31m-86.06-10.09a29.28,29.28,0,0,1-3.07,13.95,19.9,19.9,0,0,1-8.59,8.59q-10.1,4.89-25.3,4.88a54.12,54.12,0,0,1-29.23-8.82,6.56,6.56,0,0,1-3-6q0-4.09,6-12.45,1.72-2.69,5.6-2.68t10.48,3.86q6.61,3.87,12,3.86,9.6,0,9.61-3.78,0-3-10.56-4.42a51.49,51.49,0,0,1-19.7-7.4,21.06,21.06,0,0,1-7.57-8.91,32.19,32.19,0,0,1-3-14.42q0-24.9,34.2-24.9a55.42,55.42,0,0,1,23,5.36q5.52,2.52,5.52,6.3t-3.47,9.3q-3.46,5.52-7.09,5.52-1.89,0-7-2.37A26.27,26.27,0,0,0,261,172q-9.3,0-9.3,3.47,0,4.73,10.72,6.14a59,59,0,0,1,20.18,6,17.86,17.86,0,0,1,7.64,7.65q3.07,5.43,3.07,13.63m-79.43,12.29a45.14,45.14,0,0,1-.24,5.44,12.74,12.74,0,0,1-1.5,4.18q-2,4.09-12.13,4.1-9.93,0-12.14-4.26a14.67,14.67,0,0,1-1.34-4.1,44.66,44.66,0,0,1-.24-5.51V165.67a45,45,0,0,1,.24-5.43,14.49,14.49,0,0,1,1.34-4.18Q190,152,200.13,152q7.58,0,10.72,2.68c1.79,1.47,2.73,3.73,2.84,6.78.1,1.05.16,2.57.16,4.57Zm0-94.25a45.14,45.14,0,0,1-.24,5.44,12.79,12.79,0,0,1-1.42,4.1,6.7,6.7,0,0,1-4.17,3.23,34.17,34.17,0,0,1-15.92,0,6.63,6.63,0,0,1-4.18-3.31,13.58,13.58,0,0,1-1.42-4.18,45.14,45.14,0,0,1-.24-5.44,45.25,45.25,0,0,1,.24-5.44,13,13,0,0,1,1.34-4Q190,113,200.13,113q9.93,0,12,4.25a12.82,12.82,0,0,1,1.5,4.18,45.14,45.14,0,0,1,.24,5.44M173.66,221a45,45,0,0,1-.24,5.43,11.26,11.26,0,0,1-1.5,4q-2.35,4.26-13.32,4.26T146.39,227q-6.62,7.56-18.44,7.56-14.19,0-25.85-12.37a40.71,40.71,0,0,1-11.66-28.85q0-16.46,11.74-28.92T128,152q11.65,0,18.12,7.88v-33.1a45.25,45.25,0,0,1,.24-5.44,12.74,12.74,0,0,1,1.42-4.09,6.66,6.66,0,0,1,4.18-3.23,26.81,26.81,0,0,1,8-1,26.84,26.84,0,0,1,8,1,6.62,6.62,0,0,1,4.18,3.3,13.66,13.66,0,0,1,1.42,4.18,45.14,45.14,0,0,1,.24,5.44ZM467.41,81.29c0-.45,0-.9,0-1.35H0c0,.45,0,.9,0,1.35C0,210.37,104.63,315,233.71,315s233.7-104.63,233.7-233.71"/></svg>